<svg width="306" height="490" viewBox="0 0 306 490" fill="none" xmlns="http://www.w3.org/2000/svg">
<rect width="305.796" height="490" rx="12.9117" fill="url(#paint0_linear_129_1879)"/>
<path d="M4.53711 17.9024C4.53711 10.7715 10.3179 4.99072 17.4488 4.99072H287.894C295.025 4.99072 300.806 10.7715 300.806 17.9024V471.19C300.806 478.321 295.025 484.102 287.894 484.102H17.4488C10.3179 484.102 4.53711 478.321 4.53711 471.19V17.9024Z" fill="#F3FFFE"/>
<path d="M293.093 44.4629V44.4629C293.514 44.4629 293.724 44.4629 293.902 44.4769C296.127 44.652 297.894 46.4191 298.069 48.644C298.083 48.8217 298.083 49.0323 298.083 49.4536V470.944C298.083 471.366 298.083 471.576 298.069 471.754C297.894 473.979 296.127 475.746 293.902 475.921C293.724 475.935 293.514 475.935 293.093 475.935V475.935V44.4629Z" fill="#EDEDED"/>
<rect x="294" y="254.527" width="3.62963" height="27.2222" rx="1.81481" fill="#BEBEBE"/>
<rect x="253.167" y="12.7036" width="39.9259" height="22.6852" rx="11.3426" fill="url(#paint1_linear_129_1879)"/>
<path d="M269.488 20.4042L276.658 27.5743M276.658 20.4042L269.488 27.5743" stroke="#FFF9F9" stroke-width="0.680556" stroke-linecap="round" stroke-linejoin="round"/>
<path d="M11.7963 58.0739C11.7963 49.5544 18.7027 42.6479 27.2222 42.6479H272.222C280.742 42.6479 287.648 49.5544 287.648 58.0739V460.509C287.648 469.029 280.742 475.935 272.222 475.935H27.2222C18.7027 475.935 11.7963 469.029 11.7963 460.509V58.0739Z" fill="#EEF7F8"/>
<defs>
<linearGradient id="paint0_linear_129_1879" x1="10.3763" y1="56.5385" x2="306.671" y2="59.8345" gradientUnits="userSpaceOnUse">
<stop stop-color="#58D8E0"/>
<stop offset="1" stop-color="#ABDCD9"/>
</linearGradient>
<linearGradient id="paint1_linear_129_1879" x1="254.522" y1="15.3211" x2="293.174" y2="16.5337" gradientUnits="userSpaceOnUse">
<stop stop-color="#40BBC3"/>
<stop offset="1" stop-color="#ABDCD9"/>
</linearGradient>
</defs>
</svg>
